<?xml version="1.0" standalone="no"?>
<!DOCTYPE svg PUBLIC "-//W3C//DTD SVG 20010904//EN"
 "http://www.w3.org/TR/2001/REC-SVG-20010904/DTD/svg10.dtd">
<svg version="1.0" xmlns="http://www.w3.org/2000/svg"
 width="727.000000pt" height="576.000000pt" viewBox="0 0 727.000000 576.000000"
 preserveAspectRatio="xMidYMid meet">

<g transform="translate(0.000000,576.000000) scale(0.100000,-0.100000)"
fill="#000000" stroke="none">
<path d="M3257 5660 c-393 -42 -711 -147 -1038 -345 -109 -67 -131 -83 -264
-191 -454 -369 -760 -922 -847 -1529 -19 -135 -16 -494 5 -635 20 -131 71
-333 117 -465 52 -150 217 -478 245 -489 11 -4 293 52 372 73 l43 12 -30 59
c-31 61 -120 335 -120 367 0 10 5 25 10 33 8 12 19 5 60 -40 57 -64 53 -66
101 54 l32 78 -49 99 c-26 54 -55 101 -64 103 -8 3 -52 8 -97 12 -82 7 -83 7
-83 34 0 66 12 90 53 111 l40 21 37 -21 c29 -16 55 -21 114 -21 l77 0 55 52
c60 56 59 61 -15 72 -24 4 -93 23 -154 42 -84 28 -133 51 -199 95 -111 75
-177 89 -324 71 -54 -7 -99 -10 -101 -8 -3 2 5 49 18 104 21 98 21 103 6 199
-9 54 -19 134 -23 178 -6 79 -6 81 51 235 122 329 277 589 490 819 82 88 217
202 233 196 8 -3 37 14 66 40 29 25 62 45 73 45 37 0 158 47 291 114 113 57
132 70 127 86 -6 20 11 26 95 32 34 3 35 1 40 -35 l5 -38 112 66 c134 79 184
90 252 55 37 -18 47 -20 72 -10 15 7 34 19 41 27 10 13 8 19 -15 37 -54 43
-44 44 228 12 72 -9 131 -16 132 -16 1 0 11 -16 24 -36 22 -36 23 -36 75 -31
30 3 56 2 58 -1 9 -15 -33 -52 -60 -52 -16 0 -121 -30 -234 -66 -159 -51 -212
-72 -235 -95 -20 -19 -42 -29 -60 -29 -24 0 -39 -11 -72 -53 -37 -44 -43 -59
-43 -98 0 -32 7 -55 22 -74 25 -32 18 -50 -27 -75 -15 -9 -30 -26 -32 -39 -7
-46 -66 -130 -97 -139 -37 -10 -45 -31 -16 -39 24 -6 40 -39 40 -81 0 -18 -16
-42 -51 -78 l-52 -52 38 -20 38 -19 -35 -24 -35 -24 22 -88 c13 -49 26 -91 28
-94 3 -2 14 0 25 6 15 8 23 7 31 -3 8 -10 9 -16 1 -21 -13 -8 -13 -125 0 -125
6 0 10 -6 10 -14 0 -26 21 -29 44 -7 16 15 33 20 61 18 29 -1 40 2 43 14 2 12
-11 19 -53 28 -47 11 -55 16 -55 35 0 17 11 28 42 42 23 10 49 18 57 16 8 -2
45 4 83 14 l68 18 59 -58 59 -59 7 -104 c6 -89 12 -114 42 -175 29 -61 33 -77
27 -117 -10 -67 -34 -80 -59 -31 -21 41 -37 38 -63 -15 -12 -25 -28 -45 -35
-45 -31 0 -50 28 -57 81 -6 46 -4 61 17 103 l25 50 -17 85 c-21 103 -23 105
-42 89 -12 -9 -14 -25 -10 -65 4 -40 1 -64 -13 -96 -25 -57 -28 -59 -61 -42
-39 21 -49 19 -49 -9 0 -14 10 -30 25 -40 30 -20 32 -36 5 -36 -23 0 -24 -3
-9 -68 l12 -50 96 -41 c53 -23 99 -41 104 -41 4 0 7 20 7 45 0 33 4 45 15 45
12 0 15 -13 15 -60 0 -58 1 -61 63 -136 55 -69 69 -79 127 -101 36 -13 69 -28
74 -33 6 -6 -2 -26 -22 -54 -25 -34 -32 -55 -32 -90 l0 -46 63 -1 c132 -1 153
-16 162 -107 3 -37 7 -83 9 -103 5 -46 0 -53 -45 -68 -29 -9 -49 -8 -102 4
-94 22 -96 23 -108 69 -7 29 -20 48 -44 65 -21 14 -35 33 -37 48 -3 22 -14 30
-83 55 -105 39 -133 35 -223 -33 -59 -45 -72 -59 -72 -82 0 -34 -23 -32 -28 1
-2 12 -8 22 -13 22 -21 0 -5 21 66 81 53 44 75 70 75 86 0 13 -4 23 -8 23 -4
0 -79 -47 -167 -104 -88 -58 -162 -103 -164 -100 -3 2 7 17 21 32 17 18 26 39
26 65 1 38 1 38 -28 32 -25 -6 -30 -3 -30 13 0 13 -13 24 -41 35 -43 17 -43
15 -26 77 3 11 -26 161 -32 164 -3 2 -24 -2 -45 -9 -57 -20 -78 -5 -36 25 l31
22 -27 29 c-29 30 -44 30 -44 -1 0 -11 -25 -38 -60 -66 -33 -26 -60 -52 -60
-58 0 -6 54 -49 119 -96 98 -70 121 -91 130 -120 9 -29 8 -39 -8 -60 -27 -37
-68 -37 -160 3 l-80 35 -73 -32 c-72 -32 -118 -55 -108 -56 3 0 117 -38 253
-85 l249 -84 84 19 c47 11 94 20 104 20 11 0 60 -23 110 -50 50 -28 94 -50 98
-50 10 0 155 120 160 132 7 16 31 7 165 -56 162 -77 160 -77 322 -3 216 97
290 138 272 149 -21 11 -22 41 -3 57 11 9 30 9 78 1 l63 -11 232 120 c281 145
313 163 313 177 0 5 13 23 29 38 24 23 36 27 62 24 34 -5 87 21 334 165 257
150 305 179 305 186 0 4 -15 31 -33 61 l-32 55 -72 10 c-40 6 -78 16 -85 23
-22 22 -96 15 -133 -14 -28 -21 -35 -23 -42 -11 -7 13 -18 13 -82 -1 l-74 -16
-39 44 c-37 42 -40 52 -23 93 5 12 3 17 -8 17 -17 0 -47 -41 -47 -65 0 -8 -5
-15 -12 -15 -6 0 -22 -10 -34 -21 -20 -19 -30 -21 -88 -14 -64 6 -65 7 -72 40
-3 19 -1 49 6 69 10 31 8 41 -24 104 -20 39 -40 73 -46 77 -20 12 -10 25 20
25 37 0 40 23 6 45 -19 13 -26 28 -31 76 -6 54 -5 63 15 84 l22 23 61 -25 c34
-13 71 -35 82 -48 11 -14 36 -30 55 -36 19 -6 50 -25 68 -42 23 -23 35 -28 43
-20 18 18 1 68 -31 92 -17 12 -30 31 -30 43 0 12 -18 43 -40 69 -30 36 -40 56
-40 84 0 22 -6 38 -15 41 -8 4 -15 16 -15 28 0 18 -9 25 -39 34 -50 16 -52 15
-132 -8 -60 -18 -71 -25 -90 -60 -13 -22 -25 -40 -28 -40 -3 0 -28 17 -56 38
-49 36 -49 37 -22 40 15 2 27 6 27 10 0 21 -73 112 -89 112 -11 0 -21 6 -24
13 -2 8 16 15 57 22 l61 10 6 55 c6 55 -13 115 -37 115 -5 0 -13 -23 -18 -52
-10 -60 -26 -71 -64 -43 -18 13 -35 18 -51 13 -22 -6 -23 -7 -6 -19 27 -20 11
-44 -29 -44 -32 0 -34 2 -38 40 -2 22 1 45 6 50 18 18 -3 40 -39 40 -31 0 -35
-3 -35 -25 0 -18 -5 -25 -20 -25 -23 0 -26 -10 -8 -28 9 -9 9 -18 0 -37 -17
-37 -15 -46 11 -40 13 3 31 -3 45 -14 21 -19 22 -21 7 -53 -16 -32 -18 -33
-83 -35 -37 -1 -78 -3 -92 -4 -14 0 -51 2 -82 6 l-58 8 0 38 c0 35 3 39 26 39
14 0 40 11 58 25 22 17 46 25 73 25 l40 0 0 68 c0 37 5 77 11 89 17 30 114 68
141 53 12 -6 21 -19 21 -30 0 -10 10 -26 23 -35 21 -15 23 -14 45 11 13 14 22
30 20 34 -2 5 -25 23 -53 42 -55 36 -71 73 -39 91 14 8 -12 20 -132 58 -82 27
-164 49 -182 49 -25 0 -44 10 -80 44 -46 44 -47 45 -27 61 11 8 38 25 59 36
37 20 38 22 20 33 -11 6 -18 19 -16 29 3 14 14 17 58 17 31 0 65 -5 76 -11 30
-16 49 6 22 25 -10 8 -16 17 -13 20 13 14 56 -14 82 -53 31 -46 35 -48 52 -24
12 16 16 15 49 -10 20 -16 36 -34 36 -40 0 -17 186 -108 205 -101 9 4 26 -2
39 -15 27 -25 178 -81 222 -81 20 0 47 -13 76 -35 27 -21 86 -50 149 -72 80
-28 127 -52 204 -106 55 -39 119 -90 141 -113 121 -125 290 -387 380 -587 43
-95 124 -323 124 -350 0 -7 4 -18 9 -26 7 -11 14 -10 40 5 37 22 37 14 -11
168 -167 543 -549 1023 -1052 1322 -354 212 -730 318 -1159 329 -95 2 -212 0
-260 -5z m-163 -831 c20 -9 29 -9 41 1 14 12 18 11 26 -1 12 -19 11 -33 -3
-47 -19 -19 -42 -14 -71 16 -39 41 -37 51 7 31z m1137 -158 c36 -39 40 -58 23
-111 l-16 -50 51 -50 c57 -55 90 -68 127 -51 52 23 54 20 54 -99 0 -105 -1
-110 -19 -101 -13 7 -23 6 -36 -3 -16 -11 -27 -6 -86 38 -63 46 -69 54 -69 87
0 29 -8 43 -39 72 -35 32 -42 47 -61 128 -19 83 -20 133 -3 162 7 13 55 -2 74
-22z m-456 -91 c17 1 46 1 65 1 128 -4 150 -6 150 -17 0 -7 9 -15 19 -19 17
-5 19 -13 14 -84 -6 -87 4 -117 42 -127 19 -5 23 -10 16 -23 -23 -44 67 -131
104 -101 10 8 15 5 20 -12 4 -13 15 -32 25 -43 50 -57 82 -182 61 -237 -13
-36 -31 -30 -96 33 -46 44 -55 48 -103 50 -41 2 -62 9 -88 30 -21 17 -65 34
-121 48 -115 28 -137 44 -143 107 -7 60 -17 77 -41 71 -16 -4 -19 0 -19 27 0
18 -4 36 -9 42 -5 5 -11 27 -13 49 -3 34 -8 43 -36 57 -36 18 -35 20 21 38 30
9 38 16 35 33 -2 12 -13 26 -25 32 -13 5 -23 13 -23 17 0 17 56 38 85 32 17
-3 44 -5 60 -4z m835 -74 c12 -35 2 -50 -42 -60 -21 -5 -31 0 -52 25 -42 49
-35 64 29 65 52 1 55 -1 65 -30z m-1600 10 c0 -29 -40 -106 -55 -106 -19 0
-19 14 0 30 8 7 15 18 15 26 0 7 4 24 10 38 10 28 30 35 30 12z m413 -124 c-4
-10 -14 -25 -24 -34 -9 -9 -19 -22 -21 -28 -6 -18 -72 -2 -86 20 -10 17 -7 19
38 25 35 5 49 12 53 25 3 13 11 17 25 13 14 -3 19 -10 15 -21z m-493 -22 c-12
-22 -40 -24 -48 -2 -2 7 6 12 22 12 14 0 26 5 26 12 0 6 3 9 6 6 3 -4 0 -16
-6 -28z m1807 -697 c-16 -16 -17 -16 -17 3 0 11 3 24 7 28 4 3 11 2 17 -4 7
-7 5 -16 -7 -27z m-1137 -95 c0 -4 -4 -10 -10 -13 -5 -3 -10 -16 -10 -27 0
-12 -8 -30 -17 -40 -16 -18 -16 -22 1 -66 10 -26 18 -58 18 -72 0 -13 7 -30
16 -36 14 -11 8 -12 -33 -7 -27 4 -64 6 -82 7 -28 0 -32 3 -35 30 -3 33 32 97
78 139 21 19 23 27 15 55 -12 42 9 68 39 49 11 -6 20 -15 20 -19z m760 -53 c0
-8 -7 -15 -15 -15 -20 0 -20 -62 1 -102 9 -17 14 -39 11 -49 -3 -11 -1 -22 4
-25 24 -15 6 -25 -33 -19 -84 14 -132 63 -93 95 8 7 15 18 15 26 0 15 41 58
64 67 9 4 16 13 16 22 0 8 7 15 15 15 8 0 15 -7 15 -15z m-1170 -615 c0 -5 -4
-10 -10 -10 -5 0 -10 5 -10 10 0 6 5 10 10 10 6 0 10 -4 10 -10z m-116 -72
c-3 -4 -9 -8 -15 -8 -5 0 -9 4 -9 8 0 5 7 9 15 9 8 0 12 -4 9 -9z"/>
<path d="M6705 4545 c-584 -274 -715 -338 -715 -346 0 -5 77 -10 171 -11 l171
-3 -89 -64 c-1037 -757 -2432 -1482 -3623 -1883 -863 -290 -1551 -395 -2113
-322 l-48 7 7 -44 c41 -293 201 -483 469 -561 73 -21 99 -23 305 -23 300 1
441 27 813 150 728 240 1617 727 2652 1454 333 233 825 605 1140 860 11 9 68
54 125 101 58 46 157 127 220 180 63 52 123 102 133 109 18 14 18 10 13 -105
-4 -65 -9 -140 -12 -166 -2 -27 -1 -48 3 -48 4 0 39 51 77 113 168 271 253
409 312 502 66 106 82 136 68 134 -5 0 -40 -15 -79 -34z"/>
<path d="M5467 4098 c-4 -29 -7 -67 -7 -84 0 -17 -6 -37 -14 -43 -7 -6 -16
-30 -19 -53 -5 -35 1 -54 35 -122 22 -45 42 -82 43 -84 2 -2 17 4 34 13 22 11
31 23 31 41 0 36 17 64 40 64 27 0 28 6 15 90 -14 95 -86 223 -127 228 -23 3
-26 0 -31 -50z"/>
<path d="M5777 3602 c-9 -10 -17 -31 -17 -45 0 -23 -4 -27 -30 -27 -25 0 -30
-4 -30 -24 0 -13 8 -34 18 -47 31 -40 45 -109 44 -209 -2 -93 -2 -96 -32 -120
-37 -31 -38 -43 -4 -68 l27 -19 -12 -97 c-22 -171 -146 -556 -221 -681 -9 -16
-37 -66 -60 -110 -55 -101 -107 -179 -188 -280 -65 -80 -203 -229 -233 -253
-20 -15 -183 -62 -216 -62 -16 0 -37 19 -72 66 -60 79 -62 74 53 192 92 94 85
84 151 211 50 96 50 96 117 128 71 34 77 42 115 153 8 25 33 68 54 96 43 56
46 66 25 83 -8 6 -16 23 -19 38 -4 21 6 37 59 92 45 47 68 81 79 116 9 28 25
64 35 80 18 32 61 109 117 215 19 36 47 76 63 90 16 15 30 40 34 61 4 20 18
46 31 59 24 23 25 27 19 104 -7 89 -34 166 -58 166 -51 0 -123 -154 -96 -204
9 -19 7 -32 -14 -79 -15 -34 -31 -57 -40 -57 -20 0 -21 32 -1 96 15 51 12 84
-8 84 -7 -1 -52 -39 -102 -86 -103 -98 -319 -274 -478 -388 -104 -76 -107 -79
-102 -110 5 -25 0 -39 -25 -71 -52 -65 -75 -72 -93 -25 -6 17 -15 30 -20 30
-5 0 -43 -22 -85 -49 -43 -27 -111 -71 -152 -97 -41 -26 -93 -59 -115 -74 -22
-15 -56 -36 -75 -46 -117 -64 -270 -160 -270 -170 0 -7 35 -41 78 -77 42 -36
85 -74 95 -84 17 -19 16 -21 -4 -47 -11 -14 -31 -53 -44 -85 -41 -106 -90
-159 -205 -223 -60 -34 -114 -58 -132 -58 -16 0 -59 16 -97 35 -79 41 -94 43
-108 11 -13 -28 -63 -36 -220 -36 l-102 0 -15 -29 c-22 -42 -79 -97 -126 -121
-22 -11 -43 -27 -46 -34 -3 -7 9 -40 26 -74 16 -33 30 -65 30 -71 0 -14 -39
-34 -55 -27 -7 2 -30 0 -50 -5 -40 -11 -43 -16 -76 -129 -34 -115 -32 -114
-115 -83 -38 14 -100 29 -139 32 -71 7 -205 60 -205 82 0 5 -23 33 -50 60 -28
28 -62 68 -76 90 -17 27 -31 39 -47 38 -33 0 -110 -34 -122 -53 -13 -21 4 -35
135 -113 183 -109 371 -189 580 -246 228 -62 390 -83 625 -82 207 2 285 11
505 57 189 40 331 90 520 182 533 259 952 716 1165 1271 39 103 42 112 70 210
56 195 76 336 84 589 6 202 -5 366 -25 373 -6 2 -18 -5 -27 -15z m-1918 -2268
c27 -34 27 -84 1 -112 -25 -27 -25 -27 -66 -1 -41 25 -52 43 -64 106 -7 37 -5
53 6 71 l15 22 44 -30 c24 -16 53 -42 64 -56z"/>
<path d="M1260 430 l0 -290 35 0 35 0 0 290 0 290 -35 0 -35 0 0 -290z"/>
<path d="M4200 430 l0 -290 35 0 35 0 0 146 0 146 29 29 c37 36 99 41 131 9
18 -18 20 -33 20 -175 l0 -155 35 0 35 0 0 155 c0 182 -9 217 -64 240 -50 21
-85 19 -139 -9 l-47 -23 0 108 0 109 -35 0 -35 0 0 -290z"/>
<path d="M6600 430 l0 -290 35 0 35 0 0 290 0 290 -35 0 -35 0 0 -290z"/>
<path d="M7040 614 c0 -58 -3 -104 -7 -102 -97 50 -157 47 -209 -8 -43 -45
-57 -92 -52 -177 7 -128 57 -191 154 -192 39 0 60 6 83 22 29 22 30 22 36 3 4
-14 15 -20 36 -20 l29 0 0 290 0 290 -35 0 -35 0 0 -106z m-41 -139 c37 -19
41 -31 41 -135 0 -104 -4 -116 -41 -135 -91 -47 -163 12 -163 134 0 98 36 149
107 150 15 1 41 -6 56 -14z"/>
<path d="M145 653 c3 -21 32 -144 63 -273 l58 -235 31 -3 c36 -4 26 -27 113
275 24 84 45 151 47 149 2 -2 22 -68 44 -147 83 -297 76 -281 112 -277 l31 3
63 260 c34 143 63 266 63 273 0 7 -13 12 -33 12 l-33 0 -48 -217 c-26 -120
-48 -219 -49 -220 -1 -1 -29 97 -61 218 l-60 220 -30 -3 -31 -3 -61 -219 c-41
-146 -63 -211 -66 -195 -3 13 -25 113 -49 221 l-44 198 -33 0 c-33 0 -34 0
-27 -37z"/>
<path d="M5205 653 c3 -21 32 -144 63 -273 l58 -235 31 -3 c36 -4 26 -27 113
275 24 84 45 151 47 149 2 -2 22 -68 44 -147 83 -297 76 -281 112 -277 l31 3
63 260 c34 143 63 266 63 273 0 7 -13 12 -33 12 l-33 0 -48 -217 c-26 -120
-48 -219 -49 -220 -1 -1 -29 97 -61 218 l-60 220 -30 -3 -31 -3 -61 -219 c-41
-146 -63 -211 -66 -195 -3 13 -25 113 -49 221 l-44 198 -33 0 c-33 0 -34 0
-27 -37z"/>
<path d="M3980 600 l0 -50 -35 0 c-32 0 -35 -2 -35 -30 0 -28 3 -30 35 -30
l35 0 0 -151 0 -151 29 -29 c43 -42 111 -39 111 6 0 19 -6 24 -32 27 l-33 3
-3 148 -3 147 36 0 c32 0 35 2 35 30 0 28 -3 30 -35 30 l-35 0 0 50 0 50 -35
0 -35 0 0 -50z"/>
<path d="M934 531 c-77 -35 -108 -100 -102 -216 4 -82 20 -113 77 -152 66 -44
170 -39 226 13 26 24 26 26 10 44 -16 18 -18 18 -52 -6 -49 -33 -111 -33 -152
1 -16 14 -32 34 -35 43 -2 9 -7 27 -11 40 l-6 22 142 0 142 0 -6 56 c-8 79
-34 124 -87 152 -53 27 -92 28 -146 3z m130 -63 c15 -13 29 -38 32 -55 l7 -33
-102 0 c-112 0 -117 4 -84 60 31 53 103 66 147 28z"/>
<path d="M1546 540 c-37 -12 -85 -56 -102 -97 -18 -41 -18 -164 0 -206 35 -84
135 -126 221 -92 48 18 95 65 95 96 0 28 -56 27 -65 -1 -8 -26 -55 -50 -98
-50 -43 0 -82 34 -96 86 -31 112 17 214 100 214 40 0 99 -39 99 -66 0 -9 11
-14 30 -14 25 0 30 4 30 25 0 13 -14 40 -31 59 -43 50 -112 67 -183 46z"/>
<path d="M1935 531 c-73 -33 -105 -93 -105 -196 0 -134 87 -218 205 -201 98
15 155 91 155 206 -1 105 -38 167 -117 196 -52 18 -91 17 -138 -5z m145 -69
c90 -90 43 -272 -70 -272 -79 0 -129 79 -115 184 15 105 118 154 185 88z"/>
<path d="M2280 345 l0 -205 35 0 35 0 0 150 c0 150 0 151 26 175 37 34 101 35
132 2 21 -22 22 -33 22 -175 l0 -152 35 0 35 0 0 146 0 146 29 29 c37 36 99
41 131 9 18 -18 20 -33 20 -175 l0 -155 35 0 35 0 0 154 c0 85 -4 166 -9 179
-31 81 -148 101 -222 40 l-30 -26 -30 29 c-26 25 -38 29 -89 29 -45 0 -66 -5
-89 -23 l-31 -23 0 26 c0 22 -4 25 -35 25 l-35 0 0 -205z"/>
<path d="M3044 531 c-77 -35 -108 -100 -102 -216 4 -82 20 -113 77 -152 66
-44 170 -39 226 13 26 24 26 26 10 44 -16 18 -18 18 -52 -6 -49 -33 -111 -33
-152 1 -16 14 -32 34 -35 43 -2 9 -7 27 -11 40 l-6 22 142 0 142 0 -6 56 c-8
79 -34 124 -87 152 -53 27 -92 28 -146 3z m130 -63 c15 -13 29 -38 32 -55 l7
-33 -102 0 c-112 0 -117 4 -84 60 31 53 103 66 147 28z"/>
<path d="M3433 531 c-68 -31 -93 -103 -53 -154 20 -25 60 -43 147 -66 50 -14
73 -34 73 -66 0 -33 -36 -55 -89 -55 -37 0 -49 5 -77 35 -65 69 -116 32 -54
-39 52 -59 163 -71 238 -26 41 25 61 85 42 129 -16 39 -40 54 -131 81 -86 26
-99 34 -99 66 0 31 36 54 83 54 30 0 45 -7 67 -30 33 -35 80 -42 80 -11 0 31
-45 76 -88 89 -55 17 -90 15 -139 -7z"/>
<path d="M4714 531 c-77 -35 -108 -100 -102 -216 4 -82 20 -113 77 -152 66
-44 170 -39 226 13 26 24 26 26 10 44 -16 18 -18 18 -52 -6 -49 -33 -111 -33
-152 1 -16 14 -32 34 -35 43 -2 9 -7 27 -11 40 l-6 22 142 0 142 0 -6 56 c-8
79 -34 124 -87 152 -53 27 -92 28 -146 3z m130 -63 c15 -13 29 -38 32 -55 l7
-33 -102 0 c-112 0 -117 4 -84 60 31 53 103 66 147 28z"/>
<path d="M5985 531 c-73 -33 -105 -93 -105 -196 0 -134 87 -218 205 -201 98
15 155 91 155 206 -1 105 -38 167 -117 196 -52 18 -91 17 -138 -5z m145 -69
c90 -90 43 -272 -70 -272 -79 0 -129 79 -115 184 15 105 118 154 185 88z"/>
<path d="M6330 345 l0 -205 35 0 35 0 0 150 c0 150 0 151 26 175 19 18 38 25
66 25 37 0 39 2 36 28 -3 24 -7 27 -41 26 -25 -1 -46 -9 -62 -24 l-25 -23 0
26 c0 24 -4 27 -35 27 l-35 0 0 -205z"/>
</g>
</svg>
